<svg version="1.0" preserveAspectRatio="xMidYMid meet" viewBox="0 151.295994484 382.464 103.67999622" zoomAndPan="magnify" xmlns:xlink="http://www.w3.org/1999/xlink" xmlns="http://www.w3.org/2000/svg" style="max-height: 500px" width="382.464" height="103.67999622"><defs><g/></defs><g fill-opacity="1" fill="#002030"><g transform="translate(0.0000072, 230.300725)"><g><path d="M 42.875 1.265625 C 37.226562 1.265625 32.019531 0.28125 27.25 -1.6875 C 22.488281 -3.664062 18.304688 -6.421875 14.703125 -9.953125 C 11.109375 -13.484375 8.320312 -17.59375 6.34375 -22.28125 C 4.375 -26.976562 3.390625 -32.046875 3.390625 -37.484375 C 3.390625 -42.984375 4.375 -48.0625 6.34375 -52.71875 C 8.320312 -57.382812 11.078125 -61.460938 14.609375 -64.953125 C 18.140625 -68.441406 22.285156 -71.15625 27.046875 -73.09375 C 31.816406 -75.039062 37.023438 -76.015625 42.671875 -76.015625 C 48.242188 -76.015625 53.410156 -75.039062 58.171875 -73.09375 C 62.941406 -71.15625 67.109375 -68.441406 70.671875 -64.953125 C 74.234375 -61.460938 77.003906 -57.367188 78.984375 -52.671875 C 80.960938 -47.972656 81.953125 -42.875 81.953125 -37.375 C 81.953125 -31.9375 80.960938 -26.867188 78.984375 -22.171875 C 77.003906 -17.484375 74.25 -13.390625 70.71875 -9.890625 C 67.195312 -6.398438 63.050781 -3.664062 58.28125 -1.6875 C 53.519531 0.28125 48.382812 1.265625 42.875 1.265625 Z M 42.671875 -13.875 C 47.117188 -13.875 51.015625 -14.859375 54.359375 -16.828125 C 57.710938 -18.804688 60.304688 -21.578125 62.140625 -25.140625 C 63.984375 -28.703125 64.90625 -32.816406 64.90625 -37.484375 C 64.90625 -41.015625 64.375 -44.207031 63.3125 -47.0625 C 62.25 -49.914062 60.726562 -52.382812 58.75 -54.46875 C 56.78125 -56.550781 54.4375 -58.140625 51.71875 -59.234375 C 49 -60.328125 45.984375 -60.875 42.671875 -60.875 C 38.222656 -60.875 34.320312 -59.90625 30.96875 -57.96875 C 27.613281 -56.03125 25.019531 -53.3125 23.1875 -49.8125 C 21.351562 -46.320312 20.4375 -42.210938 20.4375 -37.484375 C 20.4375 -33.953125 20.960938 -30.738281 22.015625 -27.84375 C 23.078125 -24.945312 24.578125 -22.457031 26.515625 -20.375 C 28.460938 -18.289062 30.8125 -16.6875 33.5625 -15.5625 C 36.3125 -14.4375 39.347656 -13.875 42.671875 -13.875 Z M 42.671875 -13.875"/></g></g></g><g fill-opacity="1" fill="#002030"><g transform="translate(85.328964, 230.300725)"><g><path d="M 28.59375 1.171875 C 23.863281 1.171875 19.679688 0.203125 16.046875 -1.734375 C 12.410156 -3.679688 9.566406 -6.363281 7.515625 -9.78125 C 5.472656 -13.207031 4.453125 -17.144531 4.453125 -21.59375 L 4.453125 -51.453125 L 20.640625 -51.453125 L 20.640625 -21.8125 C 20.640625 -20.039062 20.941406 -18.519531 21.546875 -17.25 C 22.148438 -15.988281 23.050781 -15.003906 24.25 -14.296875 C 25.445312 -13.585938 26.894531 -13.234375 28.59375 -13.234375 C 30.988281 -13.234375 32.890625 -13.988281 34.296875 -15.5 C 35.710938 -17.019531 36.421875 -19.125 36.421875 -21.8125 L 36.421875 -51.453125 L 52.625 -51.453125 L 52.625 -21.703125 C 52.625 -17.179688 51.597656 -13.207031 49.546875 -9.78125 C 47.503906 -6.363281 44.679688 -3.679688 41.078125 -1.734375 C 37.484375 0.203125 33.320312 1.171875 28.59375 1.171875 Z M 28.59375 1.171875"/></g></g></g><g fill-opacity="1" fill="#002030"><g transform="translate(142.391378, 230.300725)"><g><path d="M 35.359375 1.0625 C 31.898438 1.0625 28.722656 0.390625 25.828125 -0.953125 C 22.941406 -2.296875 20.578125 -4.148438 18.734375 -6.515625 C 16.898438 -8.878906 15.84375 -11.578125 15.5625 -14.609375 L 15.5625 -36.3125 C 15.84375 -39.351562 16.898438 -42.109375 18.734375 -44.578125 C 20.578125 -47.046875 22.941406 -48.984375 25.828125 -50.390625 C 28.722656 -51.804688 31.898438 -52.515625 35.359375 -52.515625 C 40.234375 -52.515625 44.554688 -51.347656 48.328125 -49.015625 C 52.109375 -46.691406 55.070312 -43.515625 57.21875 -39.484375 C 59.375 -35.460938 60.453125 -30.878906 60.453125 -25.734375 C 60.453125 -20.578125 59.375 -15.984375 57.21875 -11.953125 C 55.070312 -7.929688 52.109375 -4.753906 48.328125 -2.421875 C 44.554688 -0.0976562 40.234375 1.0625 35.359375 1.0625 Z M 5.71875 21.703125 L 5.71875 -51.453125 L 21.921875 -51.453125 L 21.921875 -38.21875 L 19.265625 -25.734375 L 21.703125 -13.234375 L 21.703125 21.703125 Z M 32.390625 -13.546875 C 34.722656 -13.546875 36.753906 -14.078125 38.484375 -15.140625 C 40.210938 -16.203125 41.570312 -17.648438 42.5625 -19.484375 C 43.550781 -21.316406 44.046875 -23.398438 44.046875 -25.734375 C 44.046875 -28.128906 43.550781 -30.242188 42.5625 -32.078125 C 41.570312 -33.910156 40.210938 -35.335938 38.484375 -36.359375 C 36.753906 -37.390625 34.757812 -37.90625 32.5 -37.90625 C 30.238281 -37.90625 28.242188 -37.390625 26.515625 -36.359375 C 24.785156 -35.335938 23.425781 -33.910156 22.4375 -32.078125 C 21.457031 -30.242188 20.96875 -28.128906 20.96875 -25.734375 C 20.96875 -23.398438 21.441406 -21.316406 22.390625 -19.484375 C 23.347656 -17.648438 24.707031 -16.203125 26.46875 -15.140625 C 28.226562 -14.078125 30.203125 -13.546875 32.390625 -13.546875 Z M 32.390625 -13.546875"/></g></g></g><g fill-opacity="1" fill="#002030"><g transform="translate(205.38235, 230.300725)"><g><path d="M 30.484375 1.171875 C 25.191406 1.171875 20.410156 -0.0078125 16.140625 -2.375 C 11.867188 -4.738281 8.5 -7.96875 6.03125 -12.0625 C 3.5625 -16.15625 2.328125 -20.742188 2.328125 -25.828125 C 2.328125 -30.910156 3.5625 -35.460938 6.03125 -39.484375 C 8.5 -43.515625 11.851562 -46.710938 16.09375 -49.078125 C 20.332031 -51.441406 25.128906 -52.625 30.484375 -52.625 C 35.847656 -52.625 40.648438 -51.457031 44.890625 -49.125 C 49.128906 -46.789062 52.484375 -43.59375 54.953125 -39.53125 C 57.421875 -35.476562 58.65625 -30.910156 58.65625 -25.828125 C 58.65625 -20.742188 57.421875 -16.15625 54.953125 -12.0625 C 52.484375 -7.96875 49.128906 -4.738281 44.890625 -2.375 C 40.648438 -0.0078125 35.847656 1.171875 30.484375 1.171875 Z M 30.484375 -13.546875 C 32.816406 -13.546875 34.863281 -14.054688 36.625 -15.078125 C 38.394531 -16.109375 39.753906 -17.554688 40.703125 -19.421875 C 41.660156 -21.296875 42.140625 -23.429688 42.140625 -25.828125 C 42.140625 -28.234375 41.644531 -30.332031 40.65625 -32.125 C 39.664062 -33.925781 38.304688 -35.335938 36.578125 -36.359375 C 34.847656 -37.390625 32.816406 -37.90625 30.484375 -37.90625 C 28.234375 -37.90625 26.222656 -37.390625 24.453125 -36.359375 C 22.691406 -35.335938 21.316406 -33.910156 20.328125 -32.078125 C 19.335938 -30.242188 18.84375 -28.128906 18.84375 -25.734375 C 18.84375 -23.398438 19.335938 -21.296875 20.328125 -19.421875 C 21.316406 -17.554688 22.691406 -16.109375 24.453125 -15.078125 C 26.222656 -14.054688 28.234375 -13.546875 30.484375 -13.546875 Z M 30.484375 -13.546875"/></g></g></g><g fill-opacity="1" fill="#002030"><g transform="translate(266.361852, 230.300725)"><g><path d="M 28.59375 1.171875 C 23.863281 1.171875 19.679688 0.203125 16.046875 -1.734375 C 12.410156 -3.679688 9.566406 -6.363281 7.515625 -9.78125 C 5.472656 -13.207031 4.453125 -17.144531 4.453125 -21.59375 L 4.453125 -51.453125 L 20.640625 -51.453125 L 20.640625 -21.8125 C 20.640625 -20.039062 20.941406 -18.519531 21.546875 -17.25 C 22.148438 -15.988281 23.050781 -15.003906 24.25 -14.296875 C 25.445312 -13.585938 26.894531 -13.234375 28.59375 -13.234375 C 30.988281 -13.234375 32.890625 -13.988281 34.296875 -15.5 C 35.710938 -17.019531 36.421875 -19.125 36.421875 -21.8125 L 36.421875 -51.453125 L 52.625 -51.453125 L 52.625 -21.703125 C 52.625 -17.179688 51.597656 -13.207031 49.546875 -9.78125 C 47.503906 -6.363281 44.679688 -3.679688 41.078125 -1.734375 C 37.484375 0.203125 33.320312 1.171875 28.59375 1.171875 Z M 28.59375 1.171875"/></g></g></g><g fill-opacity="1" fill="#002030"><g transform="translate(323.42428, 230.300725)"><g><path d="M 39.703125 0 L 39.703125 -29.328125 C 39.703125 -32.003906 38.875 -34.171875 37.21875 -35.828125 C 35.5625 -37.492188 33.460938 -38.328125 30.921875 -38.328125 C 29.148438 -38.328125 27.59375 -37.957031 26.25 -37.21875 C 24.914062 -36.476562 23.859375 -35.414062 23.078125 -34.03125 C 22.304688 -32.65625 21.921875 -31.085938 21.921875 -29.328125 L 15.671875 -32.390625 C 15.671875 -36.421875 16.550781 -39.953125 18.3125 -42.984375 C 20.082031 -46.015625 22.535156 -48.359375 25.671875 -50.015625 C 28.816406 -51.679688 32.363281 -52.515625 36.3125 -52.515625 C 40.125 -52.515625 43.492188 -51.613281 46.421875 -49.8125 C 49.347656 -48.007812 51.660156 -45.625 53.359375 -42.65625 C 55.054688 -39.695312 55.90625 -36.453125 55.90625 -32.921875 L 55.90625 0 Z M 5.71875 0 L 5.71875 -51.453125 L 21.921875 -51.453125 L 21.921875 0 Z M 5.71875 0"/></g></g></g></svg>